inDegrees=no
num_controls=7
num_derivatives=13
num_iterations=197
num_multipliers=7
num_parameters=0
num_slacks=7
num_states=26
objective=5.960364
objective_accelerations=0.746641
objective_balance=0.022225
objective_effort=0.516855
objective_height=4.600364
objective_ligament=0.074279
solver_duration=1635.994641
status=Solve_Succeeded
success=true
DataType=double
version=3
OpenSimVersion=4.4-2022-07-23-0e9fedc
endheader
time	/jointset/ground_pelvis/pelvis_tilt/value	/jointset/ground_pelvis/pelvis_tx/value	/jointset/ground_pelvis/pelvis_ty/value	/jointset/hip_r/hip_flexion_r/value	/jointset/hip_r/hip_adduction_r/value	/jointset/hip_r/hip_rotation_r/value	/jointset/back/lumbar_extension/value	/jointset/patellofemoral_r/patellar_flexion_r/value	/jointset/knee_r/knee_flexion_r/value	/jointset/knee_r/knee_adduction_r/value	/jointset/knee_r/knee_rotation_r/value	/jointset/ankle_r/ankle_angle_r/value	/jointset/subtalar_r/subtalar_angle_r/value	/jointset/ground_pelvis/pelvis_tilt/speed	/jointset/ground_pelvis/pelvis_tx/speed	/jointset/ground_pelvis/pelvis_ty/speed	/jointset/hip_r/hip_flexion_r/speed	/jointset/hip_r/hip_adduction_r/speed	/jointset/hip_r/hip_rotation_r/speed	/jointset/back/lumbar_extension/speed	/jointset/patellofemoral_r/patellar_flexion_r/speed	/jointset/knee_r/knee_flexion_r/speed	/jointset/knee_r/knee_adduction_r/speed	/jointset/knee_r/knee_rotation_r/speed	/jointset/ankle_r/ankle_angle_r/speed	/jointset/subtalar_r/subtalar_angle_r/speed	/forceset/tau_hip_flexion_r	/forceset/tau_hip_adduction_r	/forceset/tau_hip_rotation_r	/forceset/tau_knee_flexion_r	/forceset/tau_ankle_angle_r	/forceset/tau_subtalar_angle_r	/forceset/tau_lumbar_extension	lambda_cid13_p0	lambda_cid14_p0	lambda_cid14_p1	lambda_cid14_p2	lambda_cid14_p3	lambda_cid14_p4	lambda_cid14_p5	/jointset/ground_pelvis/pelvis_tilt/accel	/jointset/ground_pelvis/pelvis_tx/accel	/jointset/ground_pelvis/pelvis_ty/accel	/jointset/hip_r/hip_flexion_r/accel	/jointset/hip_r/hip_adduction_r/accel	/jointset/hip_r/hip_rotation_r/accel	/jointset/back/lumbar_extension/accel	/jointset/patellofemoral_r/patellar_flexion_r/accel	/jointset/knee_r/knee_flexion_r/accel	/jointset/knee_r/knee_adduction_r/accel	/jointset/knee_r/knee_rotation_r/accel	/jointset/ankle_r/ankle_angle_r/accel	/jointset/subtalar_r/subtalar_angle_r/accel	gamma_cid13_p0	gamma_cid14_p0	gamma_cid14_p1	gamma_cid14_p2	gamma_cid14_p3	gamma_cid14_p4	gamma_cid14_p5
1.5	-0.1213785747998501	0.0228503798578888	0.7957339214426166	0.909164851438689	-0.2380053913619953	-0.07979278238535728	-0.6367010856077173	1.013852413639093	1.013852413639107	-0.004100880912295347	0.1745326041646583	0.312434228171142	0.1212816232247439	0.5581149190138919	0.2368639162430317	0.5949736107510175	-2.280864603793427	0.04051798847908546	-0.417506640822492	0.7974724026404013	-2.15773988765836	-2.157739887658361	0.2448550571708684	-2.175369908775881e-05	-0.5257830919690865	-0.1302455019338238	-0.1825531254141132	-0.002346007513064424	0.02622828910779976	-0.3098766241899338	0.01191019209744855	-0.002494208081664744	0.2273983037999034	-5.426797637145642	-37.9498060223737	-6.58936529632676	0.1718973672292358	-4.023754288805224	-627.1385408956319	65.20530291195725	0.2804191429998385	0.6755855344013932	-0.5747949655867154	-1.139922914175435	0.005870111526101916	0.04321746497289967	1.999346996144933	-1.501023964345329	-1.501023964345342	0.9123341655120322	-0.05921533368217508	-0.7808869027868734	-0.1823433021332348	1.588671790210878e-07	-7.531643992208723e-09	-2.476304079418013e-06	2.741362950335273e-07	2.596381726411764e-07	2.905263240565795e-07	-1.610270724708074e-06
1.51	-0.1157836735550363	0.02525254885014571	0.8016537293008301	0.8863012648929171	-0.2376009888196067	-0.08396824504211615	-0.6286282015185334	0.9922024279502992	0.9922024279502971	-0.001607193149359255	0.1745324856948064	0.3071378585232315	0.1199686963479139	0.5607784293804088	0.2435396031417153	0.5888580320004514	-2.291547187013993	0.04033787366683954	-0.4175669308989933	0.8169913807292262	-2.17195272104439	-2.171952721044398	0.2538877201484179	-9.593413708319079e-06	-0.5334051072758019	-0.1323372205718766	-0.1744883296723038	-0.00333199257013276	0.02611472118199845	-0.3052295854877812	0.01358735350701437	-0.00335474859368446	0.2200372402908048	-6.36781714302767	-37.096533550236	-6.743187274778887	0.1158821914885347	-4.050747483588224	-621.3246036537787	64.52931612484284	0.2462658234297398	0.6590902898315508	-0.6493728370936486	-0.9866146671972126	-0.03388478947056994	-0.02759177715754663	1.911218045316928	-1.335758234956056	-1.335758234957034	0.8990974131986553	0.0301241831960634	-0.7399084171136546	-0.2227098123434518	1.350885559955515e-07	-6.48850565854016e-08	-2.857146838040758e-06	-1.423939896640105e-07	3.254892958301278e-07	2.830061273032485e-07	-1.876720000155828e-06
1.52	-0.1101647474385653	0.02772058071583535	0.8075084946700775	0.8633400147866992	-0.2371991739277155	-0.08814369850627973	-0.6203635186824479	0.9704194448857916	0.9704194448857885	0.0009768942531726138	0.1745322273226264	0.3017678588077543	0.1186348275511627	0.562919893345009	0.2500364909295792	0.5819651129577953	-2.300397315882562	0.0400004583797687	-0.4175048023033392	0.8358321520206764	-2.18433936279939	-2.184339362799404	0.2629349850988609	-4.973418639992262e-05	-0.54050910548251	-0.1344338859180208	-0.1664235339305035	-0.004317977627208576	0.0260011532563724	-0.3005825467856184	0.01526451491657833	-0.004215289105719828	0.2126761767816989	-7.385084790252859	-36.23713892682969	-6.885730077315796	0.04641057376837825	-4.101210723962483	-615.4375976562684	63.8965344049014	0.176009862616595	0.6398257122373462	-0.73026302400473	-0.7734320437761188	-0.0255899834389283	0.0677011994039054	1.863705636670016	-1.135785638139422	-1.135785638139419	0.9152545600907245	-0.06967554529627748	-0.677283482785498	-0.1833326437516071	1.117065672608884e-07	-1.183674359798785e-07	-3.173416577481066e-06	-5.394323833973004e-07	3.828356652001966e-07	2.696983560979093e-07	-2.074318077580441e-06
1.53	-0.1045270317267134	0.0302525887240556	0.8132905160329323	0.8402995049087988	-0.2368012827239183	-0.09231927741017495	-0.6119139982785653	0.9485217207839611	0.9485217207839662	0.003650122264386126	0.1745318097926472	0.2963295046715941	0.1172804120890016	0.5645356330213768	0.2563243811772389	0.5743164758094967	-2.307389426381086	0.0395566797103491	-0.417618516016592	0.853938558415143	-2.194890606254328	-2.194890606254325	0.2716887507977097	-2.584657903376662e-05	-0.5470716202371413	-0.1364398109327699	-0.1584098039703823	-0.0054078474189888	0.02577394961543654	-0.2960812326348827	0.01672671649590957	-0.005099512825847656	0.2053190217333614	-8.476893543339342	-35.47242260971212	-7.046270221888894	-0.03031985494554484	-4.018597108857109	-609.8732625846193	63.26959925930297	0.1411849405574397	0.6172526518969853	-0.8005186658581867	-0.6148467695168237	-0.0573239645244527	-0.0518888353799715	1.764102589872202	-0.9675812931023121	-0.9675812930997806	0.8516619192194137	0.0392958541341576	-0.6321184580261038	-0.2085029995470292	8.874600246027789e-08	-1.677368426007197e-07	-3.421077484040036e-06	-9.15760642981077e-07	4.311457336377028e-07	2.502412870373116e-07	-2.198761757105468e-06
1.54	-0.09887579283401422	0.03284627202892575	0.818992380103181	0.8171985246825878	-0.2364085397379832	-0.09649618968693875	-0.6032874149209301	0.9265279267287996	0.9265279267288047	0.006410132801488772	0.1745318061267946	0.2908282487906428	0.1159060812628507	0.5656245295141633	0.2623715502595595	0.565933654436562	-2.312491385544665	0.0389708148076878	-0.4177714768774521	0.8712447427710968	-2.203553353466522	-2.203553353466501	0.280291490274057	3.303864358406487e-05	-0.5530894544407402	-0.1384169587159419	-0.1503960740102671	-0.006497717210766328	0.02554674597443526	-0.2915799184841519	0.01818891807524249	-0.005983736545969318	0.1979618666850189	-9.635681669569077	-34.70241373423396	-7.197132477211067	-0.1185875633536207	-3.951938075802186	-604.2435884454092	62.66880110763401	0.07064122590046347	0.5916814791694217	-0.8770998689319764	-0.3954017767871736	-0.0540072300873278	0.0598517698822736	1.703661228967484	-0.7580863895907255	-0.7580863895907243	0.8850493155904224	-0.06267602224570917	-0.5683473725791426	-0.1775771974363156	7.208124299661188e-08	-1.90562523380174e-07	-3.428137414916033e-06	-1.111705916849874e-06	4.4194284642667e-07	2.293543056825485e-07	-2.158982707425178e-06
